<svg xmlns="http://www.w3.org/2000/svg" viewBox="0 0 1305 780" width="1305" height="780" font-family="'Segoe UI', Helvetica, Arial, sans-serif"><rect width="1305" height="780" fill="#FFFFFF"/><defs><marker id="arr" markerWidth="10" markerHeight="10" refX="8" refY="3" orient="auto" markerUnits="userSpaceOnUse"><path d="M0,0 L8,3 L0,6 Z" fill="#475569"/></marker><marker id="arrR" markerWidth="10" markerHeight="10" refX="8" refY="3" orient="auto" markerUnits="userSpaceOnUse"><path d="M0,0 L8,3 L0,6 Z" fill="#DC2626"/></marker><marker id="arrP" markerWidth="10" markerHeight="10" refX="8" refY="3" orient="auto" markerUnits="userSpaceOnUse"><path d="M0,0 L8,3 L0,6 Z" fill="#DB2777"/></marker></defs><text x="652.5" y="34" text-anchor="middle" font-family="'Segoe UI', Helvetica, Arial, sans-serif" font-size="20" font-weight="700" fill="#0F172A">Key flow — Subject poll via shared link</text><rect x="48" y="56" width="159" height="44" rx="8" ry="8" fill="#EEF1F6" stroke="#64748B" stroke-width="2"/><text x="127.5" y="82.0" text-anchor="middle" font-family="'Segoe UI', Helvetica, Arial, sans-serif" font-size="12" font-weight="600" fill="#1E293B">User</text><line x1="127" y1="100" x2="127" y2="756" stroke="#CBD5E1" stroke-width="1.5" stroke-dasharray="4 4"/><rect x="223" y="56" width="159" height="44" rx="8" ry="8" fill="#DBEAFE" stroke="#2563EB" stroke-width="2"/><text x="302.5" y="82.0" text-anchor="middle" font-family="'Segoe UI', Helvetica, Arial, sans-serif" font-size="12" font-weight="600" fill="#1E3A8A">User App</text><line x1="302" y1="100" x2="302" y2="756" stroke="#CBD5E1" stroke-width="1.5" stroke-dasharray="4 4"/><rect x="398" y="56" width="159" height="44" rx="8" ry="8" fill="#EDE9FE" stroke="#7C3AED" stroke-width="2"/><text x="477.5" y="82.0" text-anchor="middle" font-family="'Segoe UI', Helvetica, Arial, sans-serif" font-size="12" font-weight="600" fill="#5B21B6">Gateway</text><line x1="477" y1="100" x2="477" y2="756" stroke="#CBD5E1" stroke-width="1.5" stroke-dasharray="4 4"/><rect x="573" y="56" width="159" height="44" rx="8" ry="8" fill="#D1FAE5" stroke="#059669" stroke-width="2"/><text x="652.5" y="82.0" text-anchor="middle" font-family="'Segoe UI', Helvetica, Arial, sans-serif" font-size="12" font-weight="600" fill="#065F46">Poll Svc</text><line x1="652" y1="100" x2="652" y2="756" stroke="#CBD5E1" stroke-width="1.5" stroke-dasharray="4 4"/><rect x="748" y="56" width="159" height="44" rx="8" ry="8" fill="#FCE7F3" stroke="#DB2777" stroke-width="2"/><text x="827.5" y="82.0" text-anchor="middle" font-family="'Segoe UI', Helvetica, Arial, sans-serif" font-size="12" font-weight="600" fill="#9D174D">NATS</text><line x1="827" y1="100" x2="827" y2="756" stroke="#CBD5E1" stroke-width="1.5" stroke-dasharray="4 4"/><rect x="923" y="56" width="159" height="44" rx="8" ry="8" fill="#DBEAFE" stroke="#2563EB" stroke-width="2"/><text x="1002.5" y="82.0" text-anchor="middle" font-family="'Segoe UI', Helvetica, Arial, sans-serif" font-size="12" font-weight="600" fill="#1E3A8A">Poll Web</text><line x1="1002" y1="100" x2="1002" y2="756" stroke="#CBD5E1" stroke-width="1.5" stroke-dasharray="4 4"/><rect x="1098" y="56" width="159" height="44" rx="8" ry="8" fill="#EEF1F6" stroke="#64748B" stroke-width="2"/><text x="1177.5" y="82.0" text-anchor="middle" font-family="'Segoe UI', Helvetica, Arial, sans-serif" font-size="12" font-weight="600" fill="#1E293B">Subject</text><line x1="1177" y1="100" x2="1177" y2="756" stroke="#CBD5E1" stroke-width="1.5" stroke-dasharray="4 4"/><line x1="127" y1="124" x2="302" y2="124" stroke="#475569" stroke-width="2" marker-end="url(#arr)"/><text x="214.5" y="118" text-anchor="middle" font-family="'Segoe UI', Helvetica, Arial, sans-serif" font-size="11" fill="#334155">Create poll</text><line x1="302" y1="168" x2="477" y2="168" stroke="#475569" stroke-width="2" marker-end="url(#arr)"/><text x="389.5" y="162" text-anchor="middle" font-family="'Segoe UI', Helvetica, Arial, sans-serif" font-size="11" fill="#334155">POST /polls</text><line x1="477" y1="212" x2="652" y2="212" stroke="#475569" stroke-width="2" marker-end="url(#arr)"/><text x="564.5" y="206" text-anchor="middle" font-family="'Segoe UI', Helvetica, Arial, sans-serif" font-size="11" fill="#334155">CreatePoll</text><line x1="652" y1="256" x2="302" y2="256" stroke="#475569" stroke-width="2" stroke-dasharray="6 4" marker-end="url(#arr)"/><text x="477.0" y="250" text-anchor="middle" font-family="'Segoe UI', Helvetica, Arial, sans-serif" font-size="11" fill="#334155">pollLink { opaque token }</text><line x1="127" y1="300" x2="1177" y2="300" stroke="#475569" stroke-width="2" stroke-dasharray="6 4" marker-end="url(#arr)"/><text x="652.0" y="294" text-anchor="middle" font-family="'Segoe UI', Helvetica, Arial, sans-serif" font-size="11" fill="#334155">share link / hand over phone</text><line x1="1177" y1="344" x2="1002" y2="344" stroke="#475569" stroke-width="2" marker-end="url(#arr)"/><text x="1089.5" y="338" text-anchor="middle" font-family="'Segoe UI', Helvetica, Arial, sans-serif" font-size="11" fill="#334155">open link</text><line x1="1002" y1="388" x2="477" y2="388" stroke="#475569" stroke-width="2" marker-end="url(#arr)"/><text x="739.5" y="382" text-anchor="middle" font-family="'Segoe UI', Helvetica, Arial, sans-serif" font-size="11" fill="#334155">GET /polls/token/{t}</text><line x1="477" y1="432" x2="652" y2="432" stroke="#475569" stroke-width="2" marker-end="url(#arr)"/><text x="564.5" y="426" text-anchor="middle" font-family="'Segoe UI', Helvetica, Arial, sans-serif" font-size="11" fill="#334155">GetPollByToken (validate + expiry)</text><line x1="652" y1="476" x2="1002" y2="476" stroke="#475569" stroke-width="2" stroke-dasharray="6 4" marker-end="url(#arr)"/><text x="827.0" y="470" text-anchor="middle" font-family="'Segoe UI', Helvetica, Arial, sans-serif" font-size="11" fill="#334155">poll questions</text><line x1="1177" y1="520" x2="1002" y2="520" stroke="#475569" stroke-width="2" marker-end="url(#arr)"/><text x="1089.5" y="514" text-anchor="middle" font-family="'Segoe UI', Helvetica, Arial, sans-serif" font-size="11" fill="#334155">submit answers</text><line x1="1002" y1="564" x2="477" y2="564" stroke="#475569" stroke-width="2" marker-end="url(#arr)"/><text x="739.5" y="558" text-anchor="middle" font-family="'Segoe UI', Helvetica, Arial, sans-serif" font-size="11" fill="#334155">POST /responses</text><line x1="477" y1="608" x2="652" y2="608" stroke="#475569" stroke-width="2" marker-end="url(#arr)"/><text x="564.5" y="602" text-anchor="middle" font-family="'Segoe UI', Helvetica, Arial, sans-serif" font-size="11" fill="#334155">SubmitResponse (anonymous, rate-limited)</text><line x1="652" y1="652" x2="827" y2="652" stroke="#475569" stroke-width="2" marker-end="url(#arr)"/><text x="739.5" y="646" text-anchor="middle" font-family="'Segoe UI', Helvetica, Arial, sans-serif" font-size="11" fill="#334155">PollCompleted</text><line x1="652" y1="696" x2="1002" y2="696" stroke="#475569" stroke-width="2" stroke-dasharray="6 4" marker-end="url(#arr)"/><text x="827.0" y="690" text-anchor="middle" font-family="'Segoe UI', Helvetica, Arial, sans-serif" font-size="11" fill="#334155">thank-you screen</text></svg>