<svg xmlns="http://www.w3.org/2000/svg" viewBox="0 0 1120 640" width="1120" height="640" font-family="'Segoe UI', Helvetica, Arial, sans-serif"><rect width="1120" height="640" fill="#FFFFFF"/><defs><marker id="arr" markerWidth="10" markerHeight="10" refX="8" refY="3" orient="auto" markerUnits="userSpaceOnUse"><path d="M0,0 L8,3 L0,6 Z" fill="#475569"/></marker><marker id="arrR" markerWidth="10" markerHeight="10" refX="8" refY="3" orient="auto" markerUnits="userSpaceOnUse"><path d="M0,0 L8,3 L0,6 Z" fill="#DC2626"/></marker><marker id="arrP" markerWidth="10" markerHeight="10" refX="8" refY="3" orient="auto" markerUnits="userSpaceOnUse"><path d="M0,0 L8,3 L0,6 Z" fill="#DB2777"/></marker></defs><text x="560.0" y="34" text-anchor="middle" font-family="'Segoe UI', Helvetica, Arial, sans-serif" font-size="20" font-weight="700" fill="#0F172A">PerfectGift — System Architecture (containers)</text><rect x="250" y="60" width="175" height="48" rx="11" ry="11" fill="#EEF1F6" stroke="#64748B" stroke-width="2"/><text x="337.5" y="88.66666666666667" text-anchor="middle" font-family="'Segoe UI', Helvetica, Arial, sans-serif" font-size="14" font-weight="600" fill="#1E293B">👤 User (planner)</text><rect x="815" y="60" width="175" height="48" rx="11" ry="11" fill="#EEF1F6" stroke="#64748B" stroke-width="2"/><text x="902.5" y="88.66666666666667" text-anchor="middle" font-family="'Segoe UI', Helvetica, Arial, sans-serif" font-size="14" font-weight="600" fill="#1E293B">👤 Subject (partner)</text><rect x="140" y="150" width="160" height="60" rx="11" ry="11" fill="#DBEAFE" stroke="#2563EB" stroke-width="2"/><text x="220.0" y="176.33333333333334" text-anchor="middle" font-family="'Segoe UI', Helvetica, Arial, sans-serif" font-size="13" font-weight="600" fill="#1E3A8A">iOS App</text><text x="220.0" y="192.33333333333334" text-anchor="middle" font-family="'Segoe UI', Helvetica, Arial, sans-serif" font-size="13" font-weight="600" fill="#1E3A8A">SwiftUI</text><rect x="315" y="150" width="170" height="60" rx="11" ry="11" fill="#DBEAFE" stroke="#2563EB" stroke-width="2"/><text x="400.0" y="176.33333333333334" text-anchor="middle" font-family="'Segoe UI', Helvetica, Arial, sans-serif" font-size="13" font-weight="600" fill="#1E3A8A">Android App</text><text x="400.0" y="192.33333333333334" text-anchor="middle" font-family="'Segoe UI', Helvetica, Arial, sans-serif" font-size="13" font-weight="600" fill="#1E3A8A">Kotlin/Compose</text><rect x="800" y="150" width="190" height="60" rx="11" ry="11" fill="#DBEAFE" stroke="#2563EB" stroke-width="2"/><text x="895.0" y="176.33333333333334" text-anchor="middle" font-family="'Segoe UI', Helvetica, Arial, sans-serif" font-size="13" font-weight="600" fill="#1E3A8A">Poll Web Page</text><text x="895.0" y="192.33333333333334" text-anchor="middle" font-family="'Segoe UI', Helvetica, Arial, sans-serif" font-size="13" font-weight="600" fill="#1E3A8A">static SPA · CDN</text><rect x="140" y="250" width="850" height="52" rx="11" ry="11" fill="#EDE9FE" stroke="#7C3AED" stroke-width="2"/><text x="565.0" y="280.6666666666667" text-anchor="middle" font-family="'Segoe UI', Helvetica, Arial, sans-serif" font-size="14" font-weight="600" fill="#5B21B6">API Gateway / BFF  ·  HTTP + Swagger edge  ·  JWT validation</text><rect x="55" y="350" width="165" height="76" rx="11" ry="11" fill="#D1FAE5" stroke="#059669" stroke-width="2"/><text x="137.5" y="384.0" text-anchor="middle" font-family="'Segoe UI', Helvetica, Arial, sans-serif" font-size="15" font-weight="600" fill="#065F46">Identity</text><text x="137.5" y="403.0" text-anchor="middle" font-family="'Segoe UI', Helvetica, Arial, sans-serif" font-size="10" fill="#065F46" opacity="0.85">PostgreSQL · Valkey</text><rect x="255" y="350" width="165" height="76" rx="11" ry="11" fill="#D1FAE5" stroke="#059669" stroke-width="2"/><text x="337.5" y="384.0" text-anchor="middle" font-family="'Segoe UI', Helvetica, Arial, sans-serif" font-size="15" font-weight="600" fill="#065F46">Poll</text><text x="337.5" y="403.0" text-anchor="middle" font-family="'Segoe UI', Helvetica, Arial, sans-serif" font-size="10" fill="#065F46" opacity="0.85">PostgreSQL · Valkey</text><rect x="455" y="350" width="165" height="76" rx="11" ry="11" fill="#D1FAE5" stroke="#059669" stroke-width="2"/><text x="537.5" y="384.0" text-anchor="middle" font-family="'Segoe UI', Helvetica, Arial, sans-serif" font-size="15" font-weight="600" fill="#065F46">Catalog</text><text x="537.5" y="403.0" text-anchor="middle" font-family="'Segoe UI', Helvetica, Arial, sans-serif" font-size="10" fill="#065F46" opacity="0.85">PG + pgvector · Valkey</text><rect x="655" y="350" width="165" height="76" rx="11" ry="11" fill="#D1FAE5" stroke="#059669" stroke-width="2"/><text x="737.5" y="384.0" text-anchor="middle" font-family="'Segoe UI', Helvetica, Arial, sans-serif" font-size="15" font-weight="600" fill="#065F46">Notification</text><text x="737.5" y="403.0" text-anchor="middle" font-family="'Segoe UI', Helvetica, Arial, sans-serif" font-size="10" fill="#065F46" opacity="0.85">PostgreSQL (outbox)</text><rect x="855" y="350" width="165" height="76" rx="11" ry="11" fill="#D1FAE5" stroke="#059669" stroke-width="2"/><text x="937.5" y="384.0" text-anchor="middle" font-family="'Segoe UI', Helvetica, Arial, sans-serif" font-size="15" font-weight="600" fill="#065F46">Surprise</text><text x="937.5" y="403.0" text-anchor="middle" font-family="'Segoe UI', Helvetica, Arial, sans-serif" font-size="10" fill="#065F46" opacity="0.85">PG + pgvector · Valkey</text><rect x="255" y="490" width="590" height="44" rx="11" ry="11" fill="#FCE7F3" stroke="#DB2777" stroke-width="2" stroke-dasharray="6 4"/><text x="550.0" y="516.0" text-anchor="middle" font-family="'Segoe UI', Helvetica, Arial, sans-serif" font-size="12" font-weight="600" fill="#9D174D">NATS JetStream  —  events (PollCompleted, IdeasReady) &amp; generation jobs</text><rect x="870" y="470" width="185" height="58" rx="11" ry="11" fill="#FEE2E2" stroke="#DC2626" stroke-width="2"/><text x="962.5" y="495.3333333333333" text-anchor="middle" font-family="'Segoe UI', Helvetica, Arial, sans-serif" font-size="13" font-weight="600" fill="#991B1B">Anthropic</text><text x="962.5" y="511.3333333333333" text-anchor="middle" font-family="'Segoe UI', Helvetica, Arial, sans-serif" font-size="13" font-weight="600" fill="#991B1B">Claude API</text><rect x="870" y="548" width="185" height="50" rx="11" ry="11" fill="#FEE2E2" stroke="#DC2626" stroke-width="2"/><text x="962.5" y="577.3333333333334" text-anchor="middle" font-family="'Segoe UI', Helvetica, Arial, sans-serif" font-size="13" font-weight="600" fill="#991B1B">APNs / FCM  (push)</text><polyline points="310,108 220,150" fill="none" stroke="#475569" stroke-width="2" marker-end="url(#arr)"/><rect x="248.68" y="114.5" width="32.64" height="17" rx="3" fill="#ffffff" opacity="0.92"/><text x="265.0" y="126.66666666666667" text-anchor="middle" font-family="'Segoe UI', Helvetica, Arial, sans-serif" font-size="11" fill="#334155">uses</text><polyline points="360,108 400,150" fill="none" stroke="#475569" stroke-width="2" marker-end="url(#arr)"/><polyline points="895,108 895,150" fill="none" stroke="#475569" stroke-width="2" marker-end="url(#arr)"/><rect x="860.2" y="114.5" width="69.60000000000001" height="17" rx="3" fill="#ffffff" opacity="0.92"/><text x="895.0" y="126.66666666666667" text-anchor="middle" font-family="'Segoe UI', Helvetica, Arial, sans-serif" font-size="11" fill="#334155">opens link</text><polyline points="815,84 300,150" fill="none" stroke="#475569" stroke-width="2" stroke-dasharray="6 4" marker-end="url(#arr)"/><rect x="597.3" y="100.5" width="100.4" height="17" rx="3" fill="#ffffff" opacity="0.92"/><text x="647.5" y="112.66666666666667" text-anchor="middle" font-family="'Segoe UI', Helvetica, Arial, sans-serif" font-size="11" fill="#334155">hand over phone</text><polyline points="220,210 300,250" fill="none" stroke="#475569" stroke-width="2" marker-end="url(#arr)"/><polyline points="400,210 430,250" fill="none" stroke="#475569" stroke-width="2" marker-end="url(#arr)"/><polyline points="895,210 700,250" fill="none" stroke="#475569" stroke-width="2" marker-end="url(#arr)"/><polyline points="137,302 137,350" fill="none" stroke="#475569" stroke-width="2" marker-end="url(#arr)"/><polyline points="337,302 337,350" fill="none" stroke="#475569" stroke-width="2" marker-end="url(#arr)"/><polyline points="537,302 537,350" fill="none" stroke="#475569" stroke-width="2" marker-end="url(#arr)"/><polyline points="737,302 737,350" fill="none" stroke="#475569" stroke-width="2" marker-end="url(#arr)"/><polyline points="937,302 937,350" fill="none" stroke="#475569" stroke-width="2" marker-end="url(#arr)"/><rect x="283.68" y="319.5" width="32.64" height="17" rx="3" fill="#ffffff" opacity="0.92"/><text x="300" y="331.6666666666667" text-anchor="middle" font-family="'Segoe UI', Helvetica, Arial, sans-serif" font-size="11" fill="#5B21B6">gRPC</text><polyline points="337,426 337,490" fill="none" stroke="#DB2777" stroke-width="2" marker-end="url(#arrP)"/><rect x="292.96" y="441.5" width="88.08000000000001" height="17" rx="3" fill="#ffffff" opacity="0.92"/><text x="337.0" y="453.6666666666667" text-anchor="middle" font-family="'Segoe UI', Helvetica, Arial, sans-serif" font-size="11" fill="#DB2777">PollCompleted</text><polyline points="855,390 837,390 837,490" fill="none" stroke="#DB2777" stroke-width="2" marker-end="url(#arrP)"/><rect x="772.64" y="425.5" width="112.72000000000001" height="17" rx="3" fill="#ffffff" opacity="0.92"/><text x="829.0" y="437.6666666666667" text-anchor="middle" font-family="'Segoe UI', Helvetica, Arial, sans-serif" font-size="11" fill="#DB2777">jobs / IdeasReady</text><polyline points="737,490 737,426" fill="none" stroke="#475569" stroke-width="2" marker-end="url(#arr)"/><rect x="708.36" y="441.5" width="57.28" height="17" rx="3" fill="#ffffff" opacity="0.92"/><text x="737.0" y="453.6666666666667" text-anchor="middle" font-family="'Segoe UI', Helvetica, Arial, sans-serif" font-size="11" fill="#334155">consumes</text><polyline points="1020,380 1055,380 1055,470" fill="none" stroke="#DC2626" stroke-width="2" marker-end="url(#arrR)"/><rect x="1004.22" y="363.5" width="106.56" height="17" rx="3" fill="#ffffff" opacity="0.92"/><text x="1057.5" y="375.6666666666667" text-anchor="middle" font-family="'Segoe UI', Helvetica, Arial, sans-serif" font-size="11" fill="#DC2626">generate (HTTPS)</text><polyline points="760,426 760,434 852,434 852,573 870,573" fill="none" stroke="#DC2626" stroke-width="2" marker-end="url(#arrR)"/><rect x="813.68" y="495.0" width="32.64" height="17" rx="3" fill="#ffffff" opacity="0.92"/><text x="830.0" y="507.1666666666667" text-anchor="middle" font-family="'Segoe UI', Helvetica, Arial, sans-serif" font-size="11" fill="#DC2626">push</text></svg>